<?xml version="1.0" encoding="UTF-8" standalone="no"?>
<!-- Created with Inkscape (http://www.inkscape.org/) -->

<svg
   xmlns:ns1="http://wanglongqi.github.io/WriteTeX"
   xmlns:dc="http://purl.org/dc/elements/1.1/"
   xmlns:cc="http://creativecommons.org/ns#"
   xmlns:rdf="http://www.w3.org/1999/02/22-rdf-syntax-ns#"
   xmlns:svg="http://www.w3.org/2000/svg"
   xmlns="http://www.w3.org/2000/svg"
   xmlns:sodipodi="http://sodipodi.sourceforge.net/DTD/sodipodi-0.dtd"
   xmlns:inkscape="http://www.inkscape.org/namespaces/inkscape"
   width="169.5565mm"
   height="80mm"
   viewBox="0 0 169.5565 80"
   version="1.1"
   id="svg8"
   inkscape:version="0.92.4 5da689c313, 2019-01-14"
   sodipodi:docname="flexure-setup.svg">
  <defs
     id="defs2">
    <marker
       inkscape:stockid="Arrow1Mend"
       orient="auto"
       refY="0"
       refX="0"
       id="marker1215"
       style="overflow:visible"
       inkscape:isstock="true">
      <path
         inkscape:connector-curvature="0"
         id="path1213"
         d="M 0,0 5,-5 -12.5,0 5,5 Z"
         style="fill:#000000;fill-opacity:1;fill-rule:evenodd;stroke:#000000;stroke-width:1.00000003pt;stroke-opacity:1"
         transform="matrix(-0.4,0,0,-0.4,-4,0)" />
    </marker>
    <marker
       inkscape:stockid="Arrow1Sstart"
       orient="auto"
       refY="0"
       refX="0"
       id="Arrow1Sstart"
       style="overflow:visible"
       inkscape:isstock="true">
      <path
         id="path1701"
         d="M 0,0 5,-5 -12.5,0 5,5 Z"
         style="fill:#000000;fill-opacity:1;fill-rule:evenodd;stroke:#000000;stroke-width:1.00000003pt;stroke-opacity:1"
         transform="matrix(0.2,0,0,0.2,1.2,0)"
         inkscape:connector-curvature="0" />
    </marker>
    <marker
       inkscape:stockid="Arrow1Mend"
       orient="auto"
       refY="0"
       refX="0"
       id="marker5419"
       style="overflow:visible"
       inkscape:isstock="true">
      <path
         id="path5417"
         d="M 0,0 5,-5 -12.5,0 5,5 Z"
         style="fill:#000000;fill-opacity:1;fill-rule:evenodd;stroke:#000000;stroke-width:1.00000003pt;stroke-opacity:1"
         transform="matrix(-0.4,0,0,-0.4,-4,0)"
         inkscape:connector-curvature="0" />
    </marker>
    <marker
       inkscape:stockid="Arrow1Send"
       orient="auto"
       refY="0"
       refX="0"
       id="marker5355"
       style="overflow:visible"
       inkscape:isstock="true">
      <path
         id="path5353"
         d="M 0,0 5,-5 -12.5,0 5,5 Z"
         style="fill:#000000;fill-opacity:1;fill-rule:evenodd;stroke:#000000;stroke-width:1.00000003pt;stroke-opacity:1"
         transform="matrix(-0.2,0,0,-0.2,-1.2,0)"
         inkscape:connector-curvature="0" />
    </marker>
    <marker
       inkscape:stockid="Arrow1Send"
       orient="auto"
       refY="0"
       refX="0"
       id="marker5297"
       style="overflow:visible"
       inkscape:isstock="true">
      <path
         id="path5295"
         d="M 0,0 5,-5 -12.5,0 5,5 Z"
         style="fill:#000000;fill-opacity:1;fill-rule:evenodd;stroke:#000000;stroke-width:1.00000003pt;stroke-opacity:1"
         transform="matrix(-0.2,0,0,-0.2,-1.2,0)"
         inkscape:connector-curvature="0" />
    </marker>
    <marker
       inkscape:stockid="Arrow1Send"
       orient="auto"
       refY="0"
       refX="0"
       id="marker5287"
       style="overflow:visible"
       inkscape:isstock="true">
      <path
         id="path5285"
         d="M 0,0 5,-5 -12.5,0 5,5 Z"
         style="fill:#000000;fill-opacity:1;fill-rule:evenodd;stroke:#000000;stroke-width:1.00000003pt;stroke-opacity:1"
         transform="matrix(-0.2,0,0,-0.2,-1.2,0)"
         inkscape:connector-curvature="0" />
    </marker>
    <marker
       inkscape:isstock="true"
       style="overflow:visible"
       id="marker4806"
       refX="0"
       refY="0"
       orient="auto"
       inkscape:stockid="Arrow1Mend"
       inkscape:collect="always">
      <path
         transform="matrix(-0.4,0,0,-0.4,-4,0)"
         style="fill:#000000;fill-opacity:1;fill-rule:evenodd;stroke:#000000;stroke-width:1.00000003pt;stroke-opacity:1"
         d="M 0,0 5,-5 -12.5,0 5,5 Z"
         id="path4804"
         inkscape:connector-curvature="0" />
    </marker>
    <marker
       inkscape:stockid="Arrow1Sstart"
       orient="auto"
       refY="0"
       refX="0"
       id="Arrow1Sstart-4"
       style="overflow:visible"
       inkscape:isstock="true">
      <path
         inkscape:connector-curvature="0"
         id="path1701-8"
         d="M 0,0 5,-5 -12.5,0 5,5 Z"
         style="fill:#000000;fill-opacity:1;fill-rule:evenodd;stroke:#000000;stroke-width:1.00000003pt;stroke-opacity:1"
         transform="matrix(0.2,0,0,0.2,1.2,0)" />
    </marker>
    <marker
       inkscape:stockid="Arrow1Send"
       orient="auto"
       refY="0"
       refX="0"
       id="marker5297-6"
       style="overflow:visible"
       inkscape:isstock="true">
      <path
         id="path5295-4"
         d="M 0,0 5,-5 -12.5,0 5,5 Z"
         style="fill:#000000;fill-opacity:1;fill-rule:evenodd;stroke:#000000;stroke-width:1.00000003pt;stroke-opacity:1"
         transform="matrix(-0.2,0,0,-0.2,-1.2,0)"
         inkscape:connector-curvature="0" />
    </marker>
  </defs>
  <sodipodi:namedview
     id="base"
     pagecolor="#ffffff"
     bordercolor="#666666"
     borderopacity="1.0"
     inkscape:pageopacity="0.0"
     inkscape:pageshadow="2"
     inkscape:zoom="2.0390337"
     inkscape:cx="390.69191"
     inkscape:cy="134.10657"
     inkscape:document-units="mm"
     inkscape:current-layer="layer1"
     showgrid="false"
     inkscape:window-width="3200"
     inkscape:window-height="1800"
     inkscape:window-x="0"
     inkscape:window-y="0"
     inkscape:window-maximized="0"
     fit-margin-top="0"
     fit-margin-left="0"
     fit-margin-right="0"
     fit-margin-bottom="0" />
  <metadata
     id="metadata5">
    <rdf:RDF>
      <cc:Work
         rdf:about="">
        <dc:format>image/svg+xml</dc:format>
        <dc:type
           rdf:resource="http://purl.org/dc/dcmitype/StillImage" />
        <dc:title></dc:title>
      </cc:Work>
    </rdf:RDF>
  </metadata>
  <g
     inkscape:label="Layer 1"
     inkscape:groupmode="layer"
     id="layer1"
     transform="translate(-16.666575,-19.108086)">
    <flowRoot
       xml:space="preserve"
       id="flowRoot6486"
       style="font-style:normal;font-variant:normal;font-weight:normal;font-stretch:normal;font-size:21.33333397px;line-height:1.25;font-family:'Noto Sans';-inkscape-font-specification:'Noto Sans';letter-spacing:0px;word-spacing:0px;fill:#000000;fill-opacity:1;stroke:none"
       transform="scale(0.26458333)"><flowRegion
         id="flowRegion6488"><rect
           id="rect6490"
           width="70.941483"
           height="66.601547"
           x="330.58832"
           y="167.69286" /></flowRegion><flowPara
         id="flowPara6492" /></flowRoot>    <g
       id="g1926"
       transform="translate(2.6479492e-6,7.4966585)">
      <g
         ns1:text="$x=0$"
         transform="matrix(0.8,0,0,0.8,-116.34444,-68.723001)"
         id="g6474">
        <g
           id="g6472">
          <g
             style="fill:#000000;fill-opacity:1"
             id="g6462">
            <path
               inkscape:connector-curvature="0"
               style="stroke:none"
               d="M 3.328125,-3.015625 C 3.390625,-3.265625 3.625,-4.1875 4.3125,-4.1875 c 0.046875,0 0.296875,0 0.5,0.125 C 4.53125,-4 4.34375,-3.765625 4.34375,-3.515625 c 0,0.15625 0.109375,0.34375 0.375,0.34375 0.21875,0 0.53125,-0.171875 0.53125,-0.578125 0,-0.515625 -0.578125,-0.65625 -0.921875,-0.65625 -0.578125,0 -0.921875,0.53125 -1.046875,0.75 -0.25,-0.65625 -0.78125,-0.75 -1.078125,-0.75 -1.03125,0 -1.609375,1.28125 -1.609375,1.53125 0,0.109375 0.109375,0.109375 0.125,0.109375 0.078125,0 0.109375,-0.03125 0.125,-0.109375 0.34375,-1.0625 1,-1.3125 1.34375,-1.3125 0.1875,0 0.53125,0.09375 0.53125,0.671875 0,0.3125 -0.171875,0.96875 -0.53125,2.375 -0.15625,0.609375 -0.515625,1.03125 -0.953125,1.03125 -0.0625,0 -0.28125,0 -0.5,-0.125 0.25,-0.0625 0.46875,-0.265625 0.46875,-0.546875 0,-0.265625 -0.21875,-0.34375 -0.359375,-0.34375 -0.3125,0 -0.546875,0.25 -0.546875,0.578125 0,0.453125 0.484375,0.65625 0.921875,0.65625 0.671875,0 1.03125,-0.703125 1.046875,-0.75 0.125,0.359375 0.484375,0.75 1.078125,0.75 1.03125,0 1.59375,-1.28125 1.59375,-1.53125 0,-0.109375 -0.078125,-0.109375 -0.109375,-0.109375 -0.09375,0 -0.109375,0.046875 -0.140625,0.109375 -0.328125,1.078125 -1,1.3125 -1.3125,1.3125 -0.390625,0 -0.546875,-0.3125 -0.546875,-0.65625 0,-0.21875 0.046875,-0.4375 0.15625,-0.875 z m 0,0"
               transform="translate(178.585,110.99)"
               id="path6460" />
          </g>
          <g
             style="fill:#000000;fill-opacity:1"
             id="g6466">
            <path
               inkscape:connector-curvature="0"
               style="stroke:none"
               d="m 6.84375,-3.265625 c 0.15625,0 0.34375,0 0.34375,-0.1875 C 7.1875,-3.65625 7,-3.65625 6.859375,-3.65625 h -5.96875 c -0.140625,0 -0.328125,0 -0.328125,0.203125 0,0.1875 0.1875,0.1875 0.328125,0.1875 z m 0.015625,1.9375 c 0.140625,0 0.328125,0 0.328125,-0.203125 0,-0.1875 -0.1875,-0.1875 -0.34375,-0.1875 H 0.890625 c -0.140625,0 -0.328125,0 -0.328125,0.1875 0,0.203125 0.1875,0.203125 0.328125,0.203125 z m 0,0"
               transform="translate(187.046,110.99)"
               id="path6464" />
          </g>
          <g
             style="fill:#000000;fill-opacity:1"
             id="g6470">
            <path
               inkscape:connector-curvature="0"
               style="stroke:none"
               d="m 4.578125,-3.1875 c 0,-0.796875 -0.046875,-1.59375 -0.390625,-2.328125 -0.453125,-0.96875 -1.28125,-1.125 -1.6875,-1.125 -0.609375,0 -1.328125,0.265625 -1.75,1.1875 -0.3125,0.6875 -0.359375,1.46875 -0.359375,2.265625 0,0.75 0.03125,1.640625 0.453125,2.40625 0.421875,0.796875 1.15625,1 1.640625,1 0.53125,0 1.296875,-0.203125 1.734375,-1.15625 0.3125,-0.6875 0.359375,-1.46875 0.359375,-2.25 z M 2.484375,0 C 2.09375,0 1.5,-0.25 1.328125,-1.203125 1.21875,-1.796875 1.21875,-2.71875 1.21875,-3.3125 c 0,-0.640625 0,-1.296875 0.078125,-1.828125 0.1875,-1.1875 0.9375,-1.28125 1.1875,-1.28125 0.328125,0 0.984375,0.1875 1.171875,1.171875 0.109375,0.5625 0.109375,1.3125 0.109375,1.9375 0,0.75 0,1.421875 -0.109375,2.0625 C 3.5,-0.296875 2.9375,0 2.484375,0 Z m 0,0"
               transform="translate(197.55455,110.99)"
               id="path6468" />
          </g>
        </g>
      </g>
      <path
         sodipodi:nodetypes="sccsccs"
         inkscape:connector-curvature="0"
         d="m 143.46568,48.865895 c 12.34094,2.378662 17.9001,3.259589 31.19761,3.432157 L 174.37105,40.043088 C 158.69228,39.87052 151.01645,38.989593 138.67551,36.610931 90.373668,27.300971 75.918326,42.704874 35.810667,71.235906 l 4.790168,12.254965 C 80.708494,54.959838 95.163837,39.555935 143.46568,48.865895 Z"
         style="fill:#cccccc;stroke:#000000;stroke-width:0.26458332px;stroke-linecap:butt;stroke-linejoin:miter;stroke-opacity:1"
         id="path1049-7" />
      <g
         transform="translate(0,12.170831)"
         id="g999">
        <path
           style="fill:none;stroke:#000000;stroke-width:0.62141204;stroke-linecap:butt;stroke-linejoin:miter;stroke-miterlimit:4;stroke-dasharray:none;stroke-opacity:1;marker-end:url(#marker4806)"
           d="M 16.666575,27.622781 H 180.02642"
           id="path4518"
           inkscape:connector-curvature="0"
           sodipodi:nodetypes="cc" />
        <g
           id="g5016"
           transform="matrix(0.8,0,0,0.8,39.155073,-59.500218)"
           ns1:text="$x$">
          <g
             id="surface1">
            <g
               id="g5013"
               style="fill:#000000;fill-opacity:1">
              <path
                 id="path5011"
                 transform="translate(178.585,110.99)"
                 d="M 3.328125,-3.015625 C 3.390625,-3.265625 3.625,-4.1875 4.3125,-4.1875 c 0.046875,0 0.296875,0 0.5,0.125 C 4.53125,-4 4.34375,-3.765625 4.34375,-3.515625 c 0,0.15625 0.109375,0.34375 0.375,0.34375 0.21875,0 0.53125,-0.171875 0.53125,-0.578125 0,-0.515625 -0.578125,-0.65625 -0.921875,-0.65625 -0.578125,0 -0.921875,0.53125 -1.046875,0.75 -0.25,-0.65625 -0.78125,-0.75 -1.078125,-0.75 -1.03125,0 -1.609375,1.28125 -1.609375,1.53125 0,0.109375 0.109375,0.109375 0.125,0.109375 0.078125,0 0.109375,-0.03125 0.125,-0.109375 0.34375,-1.0625 1,-1.3125 1.34375,-1.3125 0.1875,0 0.53125,0.09375 0.53125,0.671875 0,0.3125 -0.171875,0.96875 -0.53125,2.375 -0.15625,0.609375 -0.515625,1.03125 -0.953125,1.03125 -0.0625,0 -0.28125,0 -0.5,-0.125 0.25,-0.0625 0.46875,-0.265625 0.46875,-0.546875 0,-0.265625 -0.21875,-0.34375 -0.359375,-0.34375 -0.3125,0 -0.546875,0.25 -0.546875,0.578125 0,0.453125 0.484375,0.65625 0.921875,0.65625 0.671875,0 1.03125,-0.703125 1.046875,-0.75 0.125,0.359375 0.484375,0.75 1.078125,0.75 1.03125,0 1.59375,-1.28125 1.59375,-1.53125 0,-0.109375 -0.078125,-0.109375 -0.109375,-0.109375 -0.09375,0 -0.109375,0.046875 -0.140625,0.109375 -0.328125,1.078125 -1,1.3125 -1.3125,1.3125 -0.390625,0 -0.546875,-0.3125 -0.546875,-0.65625 0,-0.21875 0.046875,-0.4375 0.15625,-0.875 z m 0,0"
                 style="stroke:none"
                 inkscape:connector-curvature="0" />
            </g>
          </g>
        </g>
      </g>
      <path
         sodipodi:nodetypes="cc"
         inkscape:connector-curvature="0"
         id="path1205"
         d="m 30.321801,74.716651 c 0.02968,4.643748 1.401244,6.911979 5.62274,9.906733"
         style="fill:none;stroke:#000000;stroke-width:1;stroke-linecap:butt;stroke-linejoin:miter;stroke-miterlimit:4;stroke-dasharray:none;stroke-opacity:1;marker-end:url(#marker5287)" />
      <path
         inkscape:connector-curvature="0"
         id="path1355"
         d="M 35.542917,35.314042 V 64.49874"
         style="fill:none;stroke:#000000;stroke-width:1;stroke-linecap:butt;stroke-linejoin:miter;stroke-miterlimit:4;stroke-dasharray:none;stroke-opacity:1;marker-end:url(#marker5355)" />
      <g
         ns1:text="$-V_0$"
         transform="matrix(0.8,0,0,0.8,-115.2549,-57.171073)"
         id="g1479">
        <g
           id="g1477">
          <g
             style="fill:#000000;fill-opacity:1"
             id="g1467">
            <path
               inkscape:connector-curvature="0"
               style="stroke:none"
               d="m 6.5625,-2.296875 c 0.171875,0 0.359375,0 0.359375,-0.203125 0,-0.1875 -0.1875,-0.1875 -0.359375,-0.1875 H 1.171875 c -0.171875,0 -0.34375,0 -0.34375,0.1875 0,0.203125 0.171875,0.203125 0.34375,0.203125 z m 0,0"
               transform="translate(178.585,110.99)"
               id="path1465" />
          </g>
          <g
             style="fill:#000000;fill-opacity:1"
             id="g1471">
            <path
               inkscape:connector-curvature="0"
               style="stroke:none"
               d="M 6.265625,-5.671875 C 6.75,-6.453125 7.171875,-6.484375 7.53125,-6.5 c 0.125,-0.015625 0.140625,-0.171875 0.140625,-0.1875 0,-0.078125 -0.0625,-0.125 -0.140625,-0.125 -0.25,0 -0.546875,0.03125 -0.8125,0.03125 -0.328125,0 -0.671875,-0.03125 -0.984375,-0.03125 -0.0625,0 -0.1875,0 -0.1875,0.1875 0,0.109375 0.078125,0.125 0.15625,0.125 0.265625,0.015625 0.453125,0.125 0.453125,0.328125 0,0.15625 -0.140625,0.375 -0.140625,0.375 l -3.0625,4.875 -0.6875,-5.28125 C 2.265625,-6.375 2.5,-6.5 2.953125,-6.5 c 0.140625,0 0.25,0 0.25,-0.203125 0,-0.078125 -0.078125,-0.109375 -0.125,-0.109375 -0.40625,0 -0.828125,0.03125 -1.25,0.03125 -0.171875,0 -0.359375,0 -0.546875,0 -0.171875,0 -0.359375,-0.03125 -0.53125,-0.03125 -0.078125,0 -0.1875,0 -0.1875,0.1875 0,0.125 0.078125,0.125 0.25,0.125 0.546875,0 0.5625,0.09375 0.59375,0.34375 L 2.1875,-0.015625 C 2.21875,0.1875 2.265625,0.21875 2.390625,0.21875 c 0.15625,0 0.203125,-0.046875 0.28125,-0.171875 z m 0,0"
               transform="translate(186.333,110.99)"
               id="path1469" />
          </g>
          <g
             style="fill:#000000;fill-opacity:1"
             id="g1475">
            <path
               inkscape:connector-curvature="0"
               style="stroke:none"
               d="M 3.59375,-2.21875 C 3.59375,-2.984375 3.5,-3.546875 3.1875,-4.03125 2.96875,-4.34375 2.53125,-4.625 1.984375,-4.625 c -1.625,0 -1.625,1.90625 -1.625,2.40625 0,0.5 0,2.359375 1.625,2.359375 1.609375,0 1.609375,-1.859375 1.609375,-2.359375 z M 1.984375,-0.0625 c -0.328125,0 -0.75,-0.1875 -0.890625,-0.75 C 1,-1.21875 1,-1.796875 1,-2.3125 1,-2.828125 1,-3.359375 1.09375,-3.734375 1.25,-4.28125 1.6875,-4.4375 1.984375,-4.4375 c 0.375,0 0.734375,0.234375 0.859375,0.640625 0.109375,0.375 0.125,0.875 0.125,1.484375 0,0.515625 0,1.03125 -0.09375,1.46875 -0.140625,0.640625 -0.609375,0.78125 -0.890625,0.78125 z m 0,0"
               transform="translate(192.145,112.485)"
               id="path1473" />
          </g>
        </g>
      </g>
      <g
         ns1:text="$M_0$"
         transform="matrix(0.8,0,0,0.8,-123.53744,-1.634144)"
         id="g1551">
        <g
           id="g1549">
          <g
             style="fill:#000000;fill-opacity:1"
             id="g1543">
            <path
               inkscape:connector-curvature="0"
               style="stroke:none"
               d="M 9.234375,-6.046875 C 9.328125,-6.40625 9.34375,-6.5 10.09375,-6.5 c 0.21875,0 0.3125,0 0.3125,-0.203125 0,-0.109375 -0.09375,-0.109375 -0.265625,-0.109375 h -1.3125 c -0.265625,0 -0.28125,0 -0.390625,0.1875 L 4.796875,-0.9375 4.015625,-6.578125 C 3.984375,-6.8125 3.96875,-6.8125 3.703125,-6.8125 H 2.34375 c -0.1875,0 -0.296875,0 -0.296875,0.1875 0,0.125 0.09375,0.125 0.28125,0.125 0.140625,0 0.3125,0.015625 0.4375,0.015625 0.15625,0.03125 0.21875,0.046875 0.21875,0.171875 0,0.03125 -0.015625,0.0625 -0.046875,0.1875 l -1.265625,5.0625 c -0.09375,0.40625 -0.265625,0.71875 -1.078125,0.75 -0.046875,0 -0.171875,0.015625 -0.171875,0.1875 0,0.09375 0.0625,0.125 0.140625,0.125 0.3125,0 0.65625,-0.03125 1,-0.03125 C 1.890625,-0.03125 2.25,0 2.578125,0 c 0.046875,0 0.1875,0 0.1875,-0.203125 0,-0.109375 -0.109375,-0.109375 -0.1875,-0.109375 -0.5625,0 -0.671875,-0.203125 -0.671875,-0.4375 0,-0.0625 0,-0.125 0.03125,-0.234375 L 3.296875,-6.40625 H 3.3125 l 0.859375,6.171875 C 4.1875,-0.109375 4.203125,0 4.3125,0 4.421875,0 4.484375,-0.109375 4.53125,-0.171875 l 4.03125,-6.3125 h 0.015625 l -1.4375,5.703125 c -0.09375,0.390625 -0.109375,0.46875 -0.90625,0.46875 -0.15625,0 -0.265625,0 -0.265625,0.1875 C 5.96875,0 6.078125,0 6.109375,0 6.390625,0 7.0625,-0.03125 7.34375,-0.03125 7.75,-0.03125 8.1875,0 8.59375,0 8.65625,0 8.78125,0 8.78125,-0.203125 8.78125,-0.3125 8.6875,-0.3125 8.5,-0.3125 c -0.359375,0 -0.640625,0 -0.640625,-0.171875 0,-0.046875 0,-0.0625 0.046875,-0.25 z m 0,0"
               transform="translate(178.585,110.99)"
               id="path1541" />
          </g>
          <g
             style="fill:#000000;fill-opacity:1"
             id="g1547">
            <path
               inkscape:connector-curvature="0"
               style="stroke:none"
               d="M 3.59375,-2.21875 C 3.59375,-2.984375 3.5,-3.546875 3.1875,-4.03125 2.96875,-4.34375 2.53125,-4.625 1.984375,-4.625 c -1.625,0 -1.625,1.90625 -1.625,2.40625 0,0.5 0,2.359375 1.625,2.359375 1.609375,0 1.609375,-1.859375 1.609375,-2.359375 z M 1.984375,-0.0625 c -0.328125,0 -0.75,-0.1875 -0.890625,-0.75 C 1,-1.21875 1,-1.796875 1,-2.3125 1,-2.828125 1,-3.359375 1.09375,-3.734375 1.25,-4.28125 1.6875,-4.4375 1.984375,-4.4375 c 0.375,0 0.734375,0.234375 0.859375,0.640625 0.109375,0.375 0.125,0.875 0.125,1.484375 0,0.515625 0,1.03125 -0.09375,1.46875 -0.140625,0.640625 -0.609375,0.78125 -0.890625,0.78125 z m 0,0"
               transform="translate(188.25,112.485)"
               id="path1545" />
          </g>
        </g>
      </g>
      <g
         ns1:text="$x = x_0$"
         transform="matrix(0.8,0,0,0.8,-69.212601,-64.908766)"
         id="g1635">
        <g
           id="g1633">
          <g
             style="fill:#000000;fill-opacity:1"
             id="g1619">
            <path
               inkscape:connector-curvature="0"
               style="stroke:none"
               d="M 3.328125,-3.015625 C 3.390625,-3.265625 3.625,-4.1875 4.3125,-4.1875 c 0.046875,0 0.296875,0 0.5,0.125 C 4.53125,-4 4.34375,-3.765625 4.34375,-3.515625 c 0,0.15625 0.109375,0.34375 0.375,0.34375 0.21875,0 0.53125,-0.171875 0.53125,-0.578125 0,-0.515625 -0.578125,-0.65625 -0.921875,-0.65625 -0.578125,0 -0.921875,0.53125 -1.046875,0.75 -0.25,-0.65625 -0.78125,-0.75 -1.078125,-0.75 -1.03125,0 -1.609375,1.28125 -1.609375,1.53125 0,0.109375 0.109375,0.109375 0.125,0.109375 0.078125,0 0.109375,-0.03125 0.125,-0.109375 0.34375,-1.0625 1,-1.3125 1.34375,-1.3125 0.1875,0 0.53125,0.09375 0.53125,0.671875 0,0.3125 -0.171875,0.96875 -0.53125,2.375 -0.15625,0.609375 -0.515625,1.03125 -0.953125,1.03125 -0.0625,0 -0.28125,0 -0.5,-0.125 0.25,-0.0625 0.46875,-0.265625 0.46875,-0.546875 0,-0.265625 -0.21875,-0.34375 -0.359375,-0.34375 -0.3125,0 -0.546875,0.25 -0.546875,0.578125 0,0.453125 0.484375,0.65625 0.921875,0.65625 0.671875,0 1.03125,-0.703125 1.046875,-0.75 0.125,0.359375 0.484375,0.75 1.078125,0.75 1.03125,0 1.59375,-1.28125 1.59375,-1.53125 0,-0.109375 -0.078125,-0.109375 -0.109375,-0.109375 -0.09375,0 -0.109375,0.046875 -0.140625,0.109375 -0.328125,1.078125 -1,1.3125 -1.3125,1.3125 -0.390625,0 -0.546875,-0.3125 -0.546875,-0.65625 0,-0.21875 0.046875,-0.4375 0.15625,-0.875 z m 0,0"
               transform="translate(178.585,110.99)"
               id="path1617" />
          </g>
          <g
             style="fill:#000000;fill-opacity:1"
             id="g1623">
            <path
               inkscape:connector-curvature="0"
               style="stroke:none"
               d="m 6.84375,-3.265625 c 0.15625,0 0.34375,0 0.34375,-0.1875 C 7.1875,-3.65625 7,-3.65625 6.859375,-3.65625 h -5.96875 c -0.140625,0 -0.328125,0 -0.328125,0.203125 0,0.1875 0.1875,0.1875 0.328125,0.1875 z m 0.015625,1.9375 c 0.140625,0 0.328125,0 0.328125,-0.203125 0,-0.1875 -0.1875,-0.1875 -0.34375,-0.1875 H 0.890625 c -0.140625,0 -0.328125,0 -0.328125,0.1875 0,0.203125 0.1875,0.203125 0.328125,0.203125 z m 0,0"
               transform="translate(187.046,110.99)"
               id="path1621" />
          </g>
          <g
             style="fill:#000000;fill-opacity:1"
             id="g1627">
            <path
               inkscape:connector-curvature="0"
               style="stroke:none"
               d="M 3.328125,-3.015625 C 3.390625,-3.265625 3.625,-4.1875 4.3125,-4.1875 c 0.046875,0 0.296875,0 0.5,0.125 C 4.53125,-4 4.34375,-3.765625 4.34375,-3.515625 c 0,0.15625 0.109375,0.34375 0.375,0.34375 0.21875,0 0.53125,-0.171875 0.53125,-0.578125 0,-0.515625 -0.578125,-0.65625 -0.921875,-0.65625 -0.578125,0 -0.921875,0.53125 -1.046875,0.75 -0.25,-0.65625 -0.78125,-0.75 -1.078125,-0.75 -1.03125,0 -1.609375,1.28125 -1.609375,1.53125 0,0.109375 0.109375,0.109375 0.125,0.109375 0.078125,0 0.109375,-0.03125 0.125,-0.109375 0.34375,-1.0625 1,-1.3125 1.34375,-1.3125 0.1875,0 0.53125,0.09375 0.53125,0.671875 0,0.3125 -0.171875,0.96875 -0.53125,2.375 -0.15625,0.609375 -0.515625,1.03125 -0.953125,1.03125 -0.0625,0 -0.28125,0 -0.5,-0.125 0.25,-0.0625 0.46875,-0.265625 0.46875,-0.546875 0,-0.265625 -0.21875,-0.34375 -0.359375,-0.34375 -0.3125,0 -0.546875,0.25 -0.546875,0.578125 0,0.453125 0.484375,0.65625 0.921875,0.65625 0.671875,0 1.03125,-0.703125 1.046875,-0.75 0.125,0.359375 0.484375,0.75 1.078125,0.75 1.03125,0 1.59375,-1.28125 1.59375,-1.53125 0,-0.109375 -0.078125,-0.109375 -0.109375,-0.109375 -0.09375,0 -0.109375,0.046875 -0.140625,0.109375 -0.328125,1.078125 -1,1.3125 -1.3125,1.3125 -0.390625,0 -0.546875,-0.3125 -0.546875,-0.65625 0,-0.21875 0.046875,-0.4375 0.15625,-0.875 z m 0,0"
               transform="translate(197.562,110.99)"
               id="path1625" />
          </g>
          <g
             style="fill:#000000;fill-opacity:1"
             id="g1631">
            <path
               inkscape:connector-curvature="0"
               style="stroke:none"
               d="M 3.59375,-2.21875 C 3.59375,-2.984375 3.5,-3.546875 3.1875,-4.03125 2.96875,-4.34375 2.53125,-4.625 1.984375,-4.625 c -1.625,0 -1.625,1.90625 -1.625,2.40625 0,0.5 0,2.359375 1.625,2.359375 1.609375,0 1.609375,-1.859375 1.609375,-2.359375 z M 1.984375,-0.0625 c -0.328125,0 -0.75,-0.1875 -0.890625,-0.75 C 1,-1.21875 1,-1.796875 1,-2.3125 1,-2.828125 1,-3.359375 1.09375,-3.734375 1.25,-4.28125 1.6875,-4.4375 1.984375,-4.4375 c 0.375,0 0.734375,0.234375 0.859375,0.640625 0.109375,0.375 0.125,0.875 0.125,1.484375 0,0.515625 0,1.03125 -0.09375,1.46875 -0.140625,0.640625 -0.609375,0.78125 -0.890625,0.78125 z m 0,0"
               transform="translate(203.256,112.485)"
               id="path1629" />
          </g>
        </g>
      </g>
      <g
         ns1:text="$x = x_b$"
         transform="matrix(0.8,0,0,0.8,-41.319139,-64.877516)"
         id="g1733">
        <g
           id="g1731">
          <g
             style="fill:#000000;fill-opacity:1"
             id="g1717">
            <path
               inkscape:connector-curvature="0"
               style="stroke:none"
               d="M 3.328125,-3.015625 C 3.390625,-3.265625 3.625,-4.1875 4.3125,-4.1875 c 0.046875,0 0.296875,0 0.5,0.125 C 4.53125,-4 4.34375,-3.765625 4.34375,-3.515625 c 0,0.15625 0.109375,0.34375 0.375,0.34375 0.21875,0 0.53125,-0.171875 0.53125,-0.578125 0,-0.515625 -0.578125,-0.65625 -0.921875,-0.65625 -0.578125,0 -0.921875,0.53125 -1.046875,0.75 -0.25,-0.65625 -0.78125,-0.75 -1.078125,-0.75 -1.03125,0 -1.609375,1.28125 -1.609375,1.53125 0,0.109375 0.109375,0.109375 0.125,0.109375 0.078125,0 0.109375,-0.03125 0.125,-0.109375 0.34375,-1.0625 1,-1.3125 1.34375,-1.3125 0.1875,0 0.53125,0.09375 0.53125,0.671875 0,0.3125 -0.171875,0.96875 -0.53125,2.375 -0.15625,0.609375 -0.515625,1.03125 -0.953125,1.03125 -0.0625,0 -0.28125,0 -0.5,-0.125 0.25,-0.0625 0.46875,-0.265625 0.46875,-0.546875 0,-0.265625 -0.21875,-0.34375 -0.359375,-0.34375 -0.3125,0 -0.546875,0.25 -0.546875,0.578125 0,0.453125 0.484375,0.65625 0.921875,0.65625 0.671875,0 1.03125,-0.703125 1.046875,-0.75 0.125,0.359375 0.484375,0.75 1.078125,0.75 1.03125,0 1.59375,-1.28125 1.59375,-1.53125 0,-0.109375 -0.078125,-0.109375 -0.109375,-0.109375 -0.09375,0 -0.109375,0.046875 -0.140625,0.109375 -0.328125,1.078125 -1,1.3125 -1.3125,1.3125 -0.390625,0 -0.546875,-0.3125 -0.546875,-0.65625 0,-0.21875 0.046875,-0.4375 0.15625,-0.875 z m 0,0"
               transform="translate(178.585,110.99)"
               id="path1715" />
          </g>
          <g
             style="fill:#000000;fill-opacity:1"
             id="g1721">
            <path
               inkscape:connector-curvature="0"
               style="stroke:none"
               d="m 6.84375,-3.265625 c 0.15625,0 0.34375,0 0.34375,-0.1875 C 7.1875,-3.65625 7,-3.65625 6.859375,-3.65625 h -5.96875 c -0.140625,0 -0.328125,0 -0.328125,0.203125 0,0.1875 0.1875,0.1875 0.328125,0.1875 z m 0.015625,1.9375 c 0.140625,0 0.328125,0 0.328125,-0.203125 0,-0.1875 -0.1875,-0.1875 -0.34375,-0.1875 H 0.890625 c -0.140625,0 -0.328125,0 -0.328125,0.1875 0,0.203125 0.1875,0.203125 0.328125,0.203125 z m 0,0"
               transform="translate(187.046,110.99)"
               id="path1719" />
          </g>
          <g
             style="fill:#000000;fill-opacity:1"
             id="g1725">
            <path
               inkscape:connector-curvature="0"
               style="stroke:none"
               d="M 3.328125,-3.015625 C 3.390625,-3.265625 3.625,-4.1875 4.3125,-4.1875 c 0.046875,0 0.296875,0 0.5,0.125 C 4.53125,-4 4.34375,-3.765625 4.34375,-3.515625 c 0,0.15625 0.109375,0.34375 0.375,0.34375 0.21875,0 0.53125,-0.171875 0.53125,-0.578125 0,-0.515625 -0.578125,-0.65625 -0.921875,-0.65625 -0.578125,0 -0.921875,0.53125 -1.046875,0.75 -0.25,-0.65625 -0.78125,-0.75 -1.078125,-0.75 -1.03125,0 -1.609375,1.28125 -1.609375,1.53125 0,0.109375 0.109375,0.109375 0.125,0.109375 0.078125,0 0.109375,-0.03125 0.125,-0.109375 0.34375,-1.0625 1,-1.3125 1.34375,-1.3125 0.1875,0 0.53125,0.09375 0.53125,0.671875 0,0.3125 -0.171875,0.96875 -0.53125,2.375 -0.15625,0.609375 -0.515625,1.03125 -0.953125,1.03125 -0.0625,0 -0.28125,0 -0.5,-0.125 0.25,-0.0625 0.46875,-0.265625 0.46875,-0.546875 0,-0.265625 -0.21875,-0.34375 -0.359375,-0.34375 -0.3125,0 -0.546875,0.25 -0.546875,0.578125 0,0.453125 0.484375,0.65625 0.921875,0.65625 0.671875,0 1.03125,-0.703125 1.046875,-0.75 0.125,0.359375 0.484375,0.75 1.078125,0.75 1.03125,0 1.59375,-1.28125 1.59375,-1.53125 0,-0.109375 -0.078125,-0.109375 -0.109375,-0.109375 -0.09375,0 -0.109375,0.046875 -0.140625,0.109375 -0.328125,1.078125 -1,1.3125 -1.3125,1.3125 -0.390625,0 -0.546875,-0.3125 -0.546875,-0.65625 0,-0.21875 0.046875,-0.4375 0.15625,-0.875 z m 0,0"
               transform="translate(197.562,110.99)"
               id="path1723" />
          </g>
          <g
             style="fill:#000000;fill-opacity:1"
             id="g1729">
            <path
               inkscape:connector-curvature="0"
               style="stroke:none"
               d="m 1.84375,-4.625 c 0,-0.015625 0.03125,-0.109375 0.03125,-0.109375 0,-0.046875 -0.03125,-0.109375 -0.125,-0.109375 -0.140625,0 -0.71875,0.0625 -0.890625,0.078125 -0.046875,0 -0.15625,0.015625 -0.15625,0.15625 0,0.09375 0.109375,0.09375 0.1875,0.09375 0.328125,0 0.328125,0.0625 0.328125,0.109375 0,0.046875 -0.0625,0.328125 -0.109375,0.484375 l -0.15625,0.640625 c -0.0625,0.25 -0.4375,1.765625 -0.453125,1.859375 -0.046875,0.171875 -0.046875,0.265625 -0.046875,0.34375 0,0.703125 0.453125,1.140625 1.03125,1.140625 0.875,0 1.796875,-0.9375 1.796875,-1.96875 0,-0.8125 -0.5625,-1.171875 -1.046875,-1.171875 -0.359375,0 -0.671875,0.203125 -0.875,0.390625 z m -0.359375,4.5 c -0.328125,0 -0.53125,-0.296875 -0.53125,-0.71875 0,-0.25 0.0625,-0.484375 0.265625,-1.28125 C 1.25,-2.25 1.25,-2.265625 1.390625,-2.421875 1.65625,-2.71875 1.96875,-2.875 2.21875,-2.875 c 0.265625,0 0.5,0.203125 0.5,0.671875 0,0.28125 -0.140625,1 -0.359375,1.40625 C 2.1875,-0.453125 1.84375,-0.125 1.484375,-0.125 Z m 0,0"
               transform="translate(203.256,112.485)"
               id="path1727" />
          </g>
        </g>
      </g>
      <g
         ns1:text="$w_b$"
         transform="matrix(0.8,0,0,0.8,27.32273,-53.537815)"
         id="g1833">
        <g
           id="g1831">
          <g
             style="fill:#000000;fill-opacity:1"
             id="g1825">
            <path
               inkscape:connector-curvature="0"
               style="stroke:none"
               d="M 4.609375,-3.375 C 4.65625,-3.59375 4.75,-3.96875 4.75,-4.03125 c 0,-0.171875 -0.140625,-0.265625 -0.28125,-0.265625 -0.125,0 -0.296875,0.078125 -0.375,0.28125 -0.03125,0.0625 -0.5,1.96875 -0.5625,2.234375 C 3.453125,-1.484375 3.4375,-1.3125 3.4375,-1.125 c 0,0.109375 0,0.125 0.015625,0.171875 -0.234375,0.53125 -0.53125,0.84375 -0.921875,0.84375 -0.796875,0 -0.796875,-0.734375 -0.796875,-0.90625 0,-0.3125 0.046875,-0.703125 0.515625,-1.9375 0.109375,-0.296875 0.171875,-0.4375 0.171875,-0.640625 0,-0.4375 -0.328125,-0.8125 -0.8125,-0.8125 -0.953125,0 -1.3125,1.453125 -1.3125,1.53125 0,0.109375 0.09375,0.109375 0.109375,0.109375 0.109375,0 0.109375,-0.03125 0.15625,-0.1875 C 0.84375,-3.875 1.21875,-4.1875 1.578125,-4.1875 c 0.09375,0 0.25,0.015625 0.25,0.328125 0,0.25 -0.109375,0.53125 -0.1875,0.703125 -0.4375,1.171875 -0.546875,1.625 -0.546875,2.015625 0,0.90625 0.65625,1.25 1.40625,1.25 0.171875,0 0.640625,0 1.03125,-0.703125 0.265625,0.640625 0.953125,0.703125 1.25,0.703125 0.75,0 1.1875,-0.625 1.453125,-1.21875 0.328125,-0.78125 0.65625,-2.125 0.65625,-2.59375 0,-0.546875 -0.265625,-0.703125 -0.4375,-0.703125 -0.25,0 -0.5,0.265625 -0.5,0.484375 0,0.125 0.0625,0.1875 0.140625,0.265625 0.109375,0.109375 0.359375,0.359375 0.359375,0.84375 0,0.34375 -0.28125,1.3125 -0.546875,1.828125 -0.25,0.53125 -0.609375,0.875 -1.09375,0.875 -0.46875,0 -0.734375,-0.296875 -0.734375,-0.875 0,-0.265625 0.0625,-0.578125 0.109375,-0.71875 z m 0,0"
               transform="translate(178.585,110.99)"
               id="path1823" />
          </g>
          <g
             style="fill:#000000;fill-opacity:1"
             id="g1829">
            <path
               inkscape:connector-curvature="0"
               style="stroke:none"
               d="m 1.84375,-4.625 c 0,-0.015625 0.03125,-0.109375 0.03125,-0.109375 0,-0.046875 -0.03125,-0.109375 -0.125,-0.109375 -0.140625,0 -0.71875,0.0625 -0.890625,0.078125 -0.046875,0 -0.15625,0.015625 -0.15625,0.15625 0,0.09375 0.109375,0.09375 0.1875,0.09375 0.328125,0 0.328125,0.0625 0.328125,0.109375 0,0.046875 -0.0625,0.328125 -0.109375,0.484375 l -0.15625,0.640625 c -0.0625,0.25 -0.4375,1.765625 -0.453125,1.859375 -0.046875,0.171875 -0.046875,0.265625 -0.046875,0.34375 0,0.703125 0.453125,1.140625 1.03125,1.140625 0.875,0 1.796875,-0.9375 1.796875,-1.96875 0,-0.8125 -0.5625,-1.171875 -1.046875,-1.171875 -0.359375,0 -0.671875,0.203125 -0.875,0.390625 z m -0.359375,4.5 c -0.328125,0 -0.53125,-0.296875 -0.53125,-0.71875 0,-0.25 0.0625,-0.484375 0.265625,-1.28125 C 1.25,-2.25 1.25,-2.265625 1.390625,-2.421875 1.65625,-2.71875 1.96875,-2.875 2.21875,-2.875 c 0.265625,0 0.5,0.203125 0.5,0.671875 0,0.28125 -0.140625,1 -0.359375,1.40625 C 2.1875,-0.453125 1.84375,-0.125 1.484375,-0.125 Z m 0,0"
               transform="translate(185.717,112.485)"
               id="path1827" />
          </g>
        </g>
      </g>
      <path
         sodipodi:nodetypes="cc"
         inkscape:connector-curvature="0"
         id="path1843"
         d="m 112.03957,33.749976 h 56.575"
         style="fill:none;stroke:#000000;stroke-width:0.5;stroke-linecap:butt;stroke-linejoin:miter;stroke-miterlimit:4;stroke-dasharray:2.00000006, 1.00000003;stroke-dashoffset:0;stroke-opacity:1" />
      <path
         sodipodi:nodetypes="cc"
         inkscape:connector-curvature="0"
         id="path1843-0"
         d="M 111.26101,39.666802 V 25.9543"
         style="fill:none;stroke:#000000;stroke-width:0.5;stroke-linecap:butt;stroke-linejoin:miter;stroke-miterlimit:4;stroke-dasharray:2.00000008, 1.00000004;stroke-dashoffset:0;stroke-opacity:1" />
      <path
         sodipodi:nodetypes="cc"
         inkscape:connector-curvature="0"
         id="path1843-1"
         d="M 83.492548,39.676927 V 25.9543"
         style="fill:none;stroke:#000000;stroke-width:0.5;stroke-linecap:butt;stroke-linejoin:miter;stroke-miterlimit:4;stroke-dasharray:2.00000008, 1.00000004;stroke-dashoffset:0;stroke-opacity:1" />
    </g>
  </g>
</svg>
