<?xml version="1.0" encoding="UTF-8" standalone="no"?>
<svg
   xmlns:ns1="http://wanglongqi.github.io/WriteTeX"
   xmlns:dc="http://purl.org/dc/elements/1.1/"
   xmlns:cc="http://creativecommons.org/ns#"
   xmlns:rdf="http://www.w3.org/1999/02/22-rdf-syntax-ns#"
   xmlns:svg="http://www.w3.org/2000/svg"
   xmlns="http://www.w3.org/2000/svg"
   xmlns:sodipodi="http://sodipodi.sourceforge.net/DTD/sodipodi-0.dtd"
   xmlns:inkscape="http://www.inkscape.org/namespaces/inkscape"
   width="169.5565mm"
   height="80mm"
   viewBox="0 0 169.5565 80"
   version="1.1"
   id="svg8"
   inkscape:version="1.0.2 (e86c870879, 2021-01-15, custom)"
   sodipodi:docname="flexure-concepts.svg">
  <defs
     id="defs2">
    <marker
       inkscape:stockid="Arrow1Mend"
       orient="auto"
       refY="0"
       refX="0"
       id="marker1215"
       style="overflow:visible"
       inkscape:isstock="true">
      <path
         inkscape:connector-curvature="0"
         id="path1213"
         d="M 0,0 5,-5 -12.5,0 5,5 Z"
         style="fill:#000000;fill-opacity:1;fill-rule:evenodd;stroke:#000000;stroke-width:1.00000003pt;stroke-opacity:1"
         transform="matrix(-0.4,0,0,-0.4,-4,0)" />
    </marker>
    <marker
       inkscape:stockid="Arrow1Sstart"
       orient="auto"
       refY="0"
       refX="0"
       id="Arrow1Sstart"
       style="overflow:visible"
       inkscape:isstock="true">
      <path
         id="path1701"
         d="M 0,0 5,-5 -12.5,0 5,5 Z"
         style="fill:#000000;fill-opacity:1;fill-rule:evenodd;stroke:#000000;stroke-width:1.00000003pt;stroke-opacity:1"
         transform="matrix(0.2,0,0,0.2,1.2,0)"
         inkscape:connector-curvature="0" />
    </marker>
    <marker
       inkscape:stockid="Arrow1Mend"
       orient="auto"
       refY="0"
       refX="0"
       id="marker5419"
       style="overflow:visible"
       inkscape:isstock="true">
      <path
         id="path5417"
         d="M 0,0 5,-5 -12.5,0 5,5 Z"
         style="fill:#000000;fill-opacity:1;fill-rule:evenodd;stroke:#000000;stroke-width:1.00000003pt;stroke-opacity:1"
         transform="matrix(-0.4,0,0,-0.4,-4,0)"
         inkscape:connector-curvature="0" />
    </marker>
    <marker
       inkscape:stockid="Arrow1Send"
       orient="auto"
       refY="0"
       refX="0"
       id="marker5355"
       style="overflow:visible"
       inkscape:isstock="true">
      <path
         id="path5353"
         d="M 0,0 5,-5 -12.5,0 5,5 Z"
         style="fill:#000000;fill-opacity:1;fill-rule:evenodd;stroke:#000000;stroke-width:1.00000003pt;stroke-opacity:1"
         transform="matrix(-0.2,0,0,-0.2,-1.2,0)"
         inkscape:connector-curvature="0" />
    </marker>
    <marker
       inkscape:stockid="Arrow1Send"
       orient="auto"
       refY="0"
       refX="0"
       id="marker5297"
       style="overflow:visible"
       inkscape:isstock="true">
      <path
         id="path5295"
         d="M 0,0 5,-5 -12.5,0 5,5 Z"
         style="fill:#000000;fill-opacity:1;fill-rule:evenodd;stroke:#000000;stroke-width:1.00000003pt;stroke-opacity:1"
         transform="matrix(-0.2,0,0,-0.2,-1.2,0)"
         inkscape:connector-curvature="0" />
    </marker>
    <marker
       inkscape:stockid="Arrow1Send"
       orient="auto"
       refY="0"
       refX="0"
       id="marker5287"
       style="overflow:visible"
       inkscape:isstock="true">
      <path
         id="path5285"
         d="M 0,0 5,-5 -12.5,0 5,5 Z"
         style="fill:#000000;fill-opacity:1;fill-rule:evenodd;stroke:#000000;stroke-width:1.00000003pt;stroke-opacity:1"
         transform="matrix(-0.2,0,0,-0.2,-1.2,0)"
         inkscape:connector-curvature="0" />
    </marker>
    <marker
       inkscape:isstock="true"
       style="overflow:visible"
       id="marker4806"
       refX="0"
       refY="0"
       orient="auto"
       inkscape:stockid="Arrow1Mend"
       inkscape:collect="always">
      <path
         transform="matrix(-0.4,0,0,-0.4,-4,0)"
         style="fill:#000000;fill-opacity:1;fill-rule:evenodd;stroke:#000000;stroke-width:1.00000003pt;stroke-opacity:1"
         d="M 0,0 5,-5 -12.5,0 5,5 Z"
         id="path4804"
         inkscape:connector-curvature="0" />
    </marker>
    <marker
       inkscape:stockid="Arrow1Sstart"
       orient="auto"
       refY="0"
       refX="0"
       id="Arrow1Sstart-4"
       style="overflow:visible"
       inkscape:isstock="true">
      <path
         inkscape:connector-curvature="0"
         id="path1701-8"
         d="M 0,0 5,-5 -12.5,0 5,5 Z"
         style="fill:#000000;fill-opacity:1;fill-rule:evenodd;stroke:#000000;stroke-width:1.00000003pt;stroke-opacity:1"
         transform="matrix(0.2,0,0,0.2,1.2,0)" />
    </marker>
    <marker
       inkscape:stockid="Arrow1Send"
       orient="auto"
       refY="0"
       refX="0"
       id="marker5297-6"
       style="overflow:visible"
       inkscape:isstock="true">
      <path
         id="path5295-4"
         d="M 0,0 5,-5 -12.5,0 5,5 Z"
         style="fill:#000000;fill-opacity:1;fill-rule:evenodd;stroke:#000000;stroke-width:1.00000003pt;stroke-opacity:1"
         transform="matrix(-0.2,0,0,-0.2,-1.2,0)"
         inkscape:connector-curvature="0" />
    </marker>
  </defs>
  <sodipodi:namedview
     id="base"
     pagecolor="#ffffff"
     bordercolor="#666666"
     borderopacity="1.0"
     inkscape:pageopacity="0.0"
     inkscape:pageshadow="2"
     inkscape:zoom="2.0390337"
     inkscape:cx="390.69191"
     inkscape:cy="134.10657"
     inkscape:document-units="mm"
     inkscape:current-layer="layer1"
     showgrid="false"
     inkscape:window-width="3200"
     inkscape:window-height="1800"
     inkscape:window-x="0"
     inkscape:window-y="0"
     inkscape:window-maximized="0"
     fit-margin-top="0"
     fit-margin-left="0"
     fit-margin-right="0"
     fit-margin-bottom="0"
     inkscape:document-rotation="0" />
  <metadata
     id="metadata5">
    <rdf:RDF>
      <cc:Work
         rdf:about="">
        <dc:format>image/svg+xml</dc:format>
        <dc:type
           rdf:resource="http://purl.org/dc/dcmitype/StillImage" />
        <dc:title />
      </cc:Work>
    </rdf:RDF>
  </metadata>
  <g
     inkscape:label="Layer 1"
     inkscape:groupmode="layer"
     id="layer1"
     transform="translate(-16.666575,-19.108086)">
    <flowRoot
       xml:space="preserve"
       id="flowRoot6486"
       style="font-style:normal;font-variant:normal;font-weight:normal;font-stretch:normal;font-size:21.3333px;line-height:1.25;font-family:'Noto Sans';-inkscape-font-specification:'Noto Sans';letter-spacing:0px;word-spacing:0px;fill:#000000;fill-opacity:1;stroke:none"
       transform="scale(0.26458333)"><flowRegion
         id="flowRegion6488"><rect
           id="rect6490"
           width="70.941483"
           height="66.601547"
           x="330.58832"
           y="167.69286" /></flowRegion><flowPara
         id="flowPara6492" /></flowRoot>
    <path
       sodipodi:nodetypes="sccsccs"
       inkscape:connector-curvature="0"
       d="m 143.46568,56.362554 c 12.34094,2.378662 17.9001,3.259589 31.19761,3.432156 L 174.37105,47.539746 C 158.69228,47.367179 151.01645,46.486252 138.67551,44.10759 90.373671,34.797629 75.918329,50.201532 35.81067,78.732564 l 4.790168,12.254965 C 80.708497,62.456496 95.16384,47.052593 143.46568,56.362554 Z"
       style="fill:#cccccc;stroke:#000000;stroke-width:0.264583px;stroke-linecap:butt;stroke-linejoin:miter;stroke-opacity:1"
       id="path1049-7" />
    <g
       transform="translate(2.6479492e-6,19.667489)"
       id="g999">
      <path
         style="fill:none;stroke:#000000;stroke-width:0.621412;stroke-linecap:butt;stroke-linejoin:miter;stroke-miterlimit:4;stroke-dasharray:none;stroke-opacity:1;marker-end:url(#marker4806)"
         d="M 16.666575,27.622781 H 180.02642"
         id="path4518"
         inkscape:connector-curvature="0"
         sodipodi:nodetypes="cc" />
      <g
         id="g5016"
         transform="matrix(0.8,0,0,0.8,39.155073,-59.500218)"
         ns1:text="$x$">
        <g
           id="surface1">
          <g
             id="g5013"
             style="fill:#000000;fill-opacity:1">
            <path
               id="path5011"
               transform="translate(178.585,110.99)"
               d="M 3.328125,-3.015625 C 3.390625,-3.265625 3.625,-4.1875 4.3125,-4.1875 c 0.046875,0 0.296875,0 0.5,0.125 C 4.53125,-4 4.34375,-3.765625 4.34375,-3.515625 c 0,0.15625 0.109375,0.34375 0.375,0.34375 0.21875,0 0.53125,-0.171875 0.53125,-0.578125 0,-0.515625 -0.578125,-0.65625 -0.921875,-0.65625 -0.578125,0 -0.921875,0.53125 -1.046875,0.75 -0.25,-0.65625 -0.78125,-0.75 -1.078125,-0.75 -1.03125,0 -1.609375,1.28125 -1.609375,1.53125 0,0.109375 0.109375,0.109375 0.125,0.109375 0.078125,0 0.109375,-0.03125 0.125,-0.109375 0.34375,-1.0625 1,-1.3125 1.34375,-1.3125 0.1875,0 0.53125,0.09375 0.53125,0.671875 0,0.3125 -0.171875,0.96875 -0.53125,2.375 -0.15625,0.609375 -0.515625,1.03125 -0.953125,1.03125 -0.0625,0 -0.28125,0 -0.5,-0.125 0.25,-0.0625 0.46875,-0.265625 0.46875,-0.546875 0,-0.265625 -0.21875,-0.34375 -0.359375,-0.34375 -0.3125,0 -0.546875,0.25 -0.546875,0.578125 0,0.453125 0.484375,0.65625 0.921875,0.65625 0.671875,0 1.03125,-0.703125 1.046875,-0.75 0.125,0.359375 0.484375,0.75 1.078125,0.75 1.03125,0 1.59375,-1.28125 1.59375,-1.53125 0,-0.109375 -0.078125,-0.109375 -0.109375,-0.109375 -0.09375,0 -0.109375,0.046875 -0.140625,0.109375 -0.328125,1.078125 -1,1.3125 -1.3125,1.3125 -0.390625,0 -0.546875,-0.3125 -0.546875,-0.65625 0,-0.21875 0.046875,-0.4375 0.15625,-0.875 z m 0,0"
               style="stroke:none"
               inkscape:connector-curvature="0" />
          </g>
        </g>
      </g>
    </g>
    <path
       sodipodi:nodetypes="cc"
       inkscape:connector-curvature="0"
       id="path1205"
       d="m 30.321804,82.213309 c 0.02968,4.643748 1.401244,6.911979 5.62274,9.906733"
       style="fill:none;stroke:#000000;stroke-width:1;stroke-linecap:butt;stroke-linejoin:miter;stroke-miterlimit:4;stroke-dasharray:none;stroke-opacity:1;marker-end:url(#marker5287)" />
    <path
       inkscape:connector-curvature="0"
       id="path1355"
       d="M 35.54292,42.810701 V 71.995398"
       style="fill:none;stroke:#000000;stroke-width:1;stroke-linecap:butt;stroke-linejoin:miter;stroke-miterlimit:4;stroke-dasharray:none;stroke-opacity:1;marker-end:url(#marker5355)" />
    <text
       xml:space="preserve"
       style="font-style:normal;font-variant:normal;font-weight:normal;font-stretch:normal;font-size:5.64444px;line-height:0;font-family:Arial;-inkscape-font-specification:Arial;font-variant-ligatures:discretionary-ligatures;letter-spacing:0px;word-spacing:0px;stroke-width:0.264583"
       x="29.214973"
       y="40.082878"
       id="text152"><tspan
         sodipodi:role="line"
         id="tspan150"
         x="29.214973"
         y="40.082878"
         style="font-style:normal;font-variant:normal;font-weight:normal;font-stretch:normal;font-size:5.64444px;font-family:Arial;-inkscape-font-specification:Arial;stroke-width:0.264583">load</tspan></text>
    <text
       xml:space="preserve"
       style="font-size:5.64444px;line-height:0;font-family:Roboto;-inkscape-font-specification:Roboto;font-variant-ligatures:discretionary-ligatures;letter-spacing:0px;word-spacing:0px;stroke-width:0.264583"
       x="17.83831"
       y="93.027946"
       id="text156"
       transform="rotate(-34.259144)"><tspan
         sodipodi:role="line"
         id="tspan154"
         x="17.83831"
         y="93.027946"
         style="font-size:5.64444px;stroke-width:0.264583">plate</tspan></text>
    <path
       inkscape:connector-curvature="0"
       style="fill:#000000;fill-opacity:1;stroke:none;stroke-width:0.8"
       d="m 173.87823,40.050844 c 0.0375,-0.175 0.1125,-0.475 0.1125,-0.525 0,-0.1375 -0.1125,-0.2125 -0.225,-0.2125 -0.1,0 -0.2375,0.0625 -0.3,0.225 -0.025,0.05 -0.4,1.575 -0.45,1.7875 -0.0625,0.2375 -0.075,0.375 -0.075,0.525 0,0.0875 0,0.1 0.0125,0.1375 -0.1875,0.425 -0.425,0.675 -0.7375,0.675 -0.6375,0 -0.6375,-0.5875 -0.6375,-0.725 0,-0.25 0.0375,-0.5625 0.4125,-1.55 0.0875,-0.2375 0.1375,-0.35 0.1375,-0.5125 0,-0.35 -0.2625,-0.65 -0.65,-0.65 -0.7625,0 -1.05,1.1625 -1.05,1.225 0,0.0875 0.075,0.0875 0.0875,0.0875 0.0875,0 0.0875,-0.025 0.125,-0.15 0.225,-0.7375 0.525,-0.9875 0.8125,-0.9875 0.075,0 0.2,0.0125 0.2,0.2625 0,0.2 -0.0875,0.425 -0.15,0.5625 -0.35,0.9375 -0.4375,1.3 -0.4375,1.6125 0,0.725 0.525,1 1.125,1 0.1375,0 0.5125,0 0.825,-0.5625 0.2125,0.5125 0.7625,0.5625 1,0.5625 0.6,0 0.95,-0.5 1.1625,-0.975 0.2625,-0.625 0.525,-1.7 0.525,-2.075 0,-0.4375 -0.2125,-0.5625 -0.35,-0.5625 -0.2,0 -0.4,0.2125 -0.4,0.3875 0,0.1 0.05,0.15 0.1125,0.2125 0.0875,0.0875 0.2875,0.2875 0.2875,0.675 0,0.275 -0.225,1.05 -0.4375,1.4625 -0.2,0.425 -0.4875,0.7 -0.875,0.7 -0.375,0 -0.5875,-0.2375 -0.5875,-0.7 0,-0.2125 0.05,-0.4625 0.0875,-0.575 z m 0,0"
       id="path1823" />
    <path
       sodipodi:nodetypes="cc"
       inkscape:connector-curvature="0"
       id="path1843"
       d="m 112.03957,41.246636 h 56.575"
       style="fill:none;stroke:#000000;stroke-width:0.5;stroke-linecap:butt;stroke-linejoin:miter;stroke-miterlimit:4;stroke-dasharray:2, 1;stroke-dashoffset:0;stroke-opacity:1" />
    <text
       xml:space="preserve"
       style="font-size:5.64444px;line-height:0;font-family:Roboto;-inkscape-font-specification:Roboto;font-variant-ligatures:discretionary-ligatures;letter-spacing:0px;word-spacing:0px;stroke-width:0.264583"
       x="150.75388"
       y="37.176052"
       id="text179"><tspan
         sodipodi:role="line"
         id="tspan177"
         x="150.75388"
         y="37.176052"
         style="font-size:5.64444px;stroke-width:0.264583">deflection</tspan></text>
    <text
       xml:space="preserve"
       style="font-size:5.64444px;line-height:0;font-family:Arial;-inkscape-font-specification:Arial;font-variant-ligatures:discretionary-ligatures;letter-spacing:0px;word-spacing:0px;stroke-width:0.264583"
       x="40.736015"
       y="59.204391"
       id="text48"><tspan
         sodipodi:role="line"
         id="tspan46"
         x="40.736015"
         y="59.204391"
         style="stroke-width:0.264583">trench</tspan></text>
    <text
       xml:space="preserve"
       style="font-size:5.64444px;line-height:0;font-family:Arial;-inkscape-font-specification:Arial;font-variant-ligatures:discretionary-ligatures;letter-spacing:0px;word-spacing:0px;stroke-width:0.264583"
       x="98.261009"
       y="37.993599"
       id="text48-3"><tspan
         sodipodi:role="line"
         id="tspan46-6"
         x="98.261009"
         y="37.993599"
         style="stroke-width:0.264583">forebulge</tspan></text>
  </g>
</svg>
